<?xml version="1.0" encoding="iso-8859-1"?>
<!-- Uploaded to: SVG Repo, www.svgrepo.com, Generator: SVG Repo Mixer Tools -->
<svg height="800px" width="800px" version="1.1" id="Layer_1" xmlns="http://www.w3.org/2000/svg" xmlns:xlink="http://www.w3.org/1999/xlink" 
	 viewBox="0 0 511.97 511.97" xml:space="preserve">
<path style="fill:#4A89DC;" d="M431.132,0.081c-21.14-0.828-40.732,6.671-55.169,21.116c-0.172,0.172-0.328,0.344-0.484,0.516
	c-0.641,0.734-65.621,74.762-172.319,181.467C96.509,309.838,22.427,374.866,21.693,375.506c-0.18,0.156-0.359,0.328-0.523,0.484
	C6.733,390.427-0.767,410.02,0.062,431.159c0.82,20.827,9.656,40.67,24.881,55.903c31.647,31.655,81.48,33.343,111.057,3.75
	c0.172-0.156,0.336-0.344,0.492-0.516c0.641-0.734,65.606-74.871,172.242-181.521c106.65-106.65,180.803-171.615,181.537-172.256
	c0.172-0.156,0.359-0.32,0.516-0.492c29.592-29.584,27.904-79.41-3.75-111.064C471.817,9.729,451.96,0.901,431.132,0.081z"/>
<g>
	<path style="fill:#5D9CEC;" d="M25.294,372.319c-2.281,2.031-3.515,3.108-3.601,3.187c-0.18,0.156-0.359,0.328-0.523,0.484
		C6.733,390.427-0.767,410.02,0.062,431.159c0.82,20.827,9.656,40.67,24.881,55.903c31.647,31.655,81.48,33.343,111.057,3.75
		c0.172-0.156,0.336-0.344,0.492-0.516c0.078-0.094,1.156-1.328,3.18-3.608L25.294,372.319z"/>
	<path style="fill:#5D9CEC;" d="M486.676,139.691c2.281-2.031,3.516-3.109,3.609-3.188c0.172-0.156,0.344-0.32,0.5-0.484
		c14.452-14.437,21.951-34.029,21.123-55.169c-0.812-20.819-9.655-40.678-24.873-55.896C455.381-6.7,405.539-8.396,375.978,21.188
		c-0.188,0.172-0.344,0.344-0.5,0.531c-0.078,0.086-1.156,1.312-3.188,3.602L486.676,139.691z"/>
</g>
<g>
	<path style="fill:#E6E9ED;" d="M139.655,297.182c-2.945,2.937-5.32,6.327-7.062,10.046c-4.992,10.702-4.25,23.593,2.031,35.326
		c5.828,10.905,15.874,20.108,28.279,25.89c9.07,4.234,17.625,8.218,26.296,9.624c11.366,1.828,21.131-1.234,29.014-9.124
		c4.156-4.156,7.773-9.594,11.054-16.625c7.961-17.092,7.734-30.717-0.711-41.685c-6.898-8.953-17.913-14.077-29.592-19.53
		C177.247,280.979,153.413,283.417,139.655,297.182z"/>
	<path style="fill:#E6E9ED;" d="M342.7,134.816c-11.734-6.281-24.608-7.015-35.311-2.023c-3.734,1.742-7.109,4.109-10.062,7.055
		c-13.749,13.765-16.187,37.6-6.062,59.317c5.438,11.663,10.578,22.694,19.531,29.584c10.951,8.445,24.592,8.68,41.669,0.711
		c7.03-3.281,12.468-6.898,16.64-11.054l0,0c7.875-7.891,10.953-17.648,9.125-29.007c-1.406-8.671-5.406-17.233-9.625-26.303
		C362.807,150.69,353.605,140.644,342.7,134.816z"/>
</g>
<g>
	<path style="fill:#434A54;" d="M192.949,290.292l-0.008-0.078c-3.062,0.438-18.952,3.984-31.342,30.545
		c-12.39,26.562-4.883,41.014-3.25,43.639l0.016-0.016c0.414,0.672,0.906,1.312,1.492,1.906c4.164,4.156,10.921,4.156,15.085,0
		c3.445-3.453,4.031-8.656,1.789-12.719c-1.188-2.672-1.789-10.952,4.203-23.795c5.765-12.375,12.21-17.328,15.194-18.405
		c2.211-0.312,4.343-1.312,6.039-3.016c4.172-4.156,4.172-10.905,0-15.077C199.66,290.776,196.207,289.776,192.949,290.292z
		 M176.489,353.163c0.023,0.047,0.094,0.156,0.195,0.344C176.622,353.397,176.56,353.272,176.489,353.163z"/>
	<path style="fill:#434A54;" d="M293.264,202.188c4.156,4.164,10.906,4.164,15.062,0c1.719-1.703,2.703-3.835,3.016-6.046
		c1.077-2.977,6.046-9.421,18.404-15.187c12.859-5.992,21.124-5.391,23.796-4.211c4.062,2.25,9.28,1.656,12.718-1.781
		c4.156-4.164,4.156-10.921,0-15.085c-0.594-0.586-1.219-1.078-1.906-1.5l0.016-0.016c-2.625-1.625-17.076-9.132-43.638,3.258
		c-26.562,12.382-30.093,28.279-30.53,31.342l0.062,0.008C289.764,196.227,290.733,199.68,293.264,202.188z M353.48,176.705
		c-0.188-0.102-0.312-0.172-0.344-0.195C353.261,176.572,353.355,176.642,353.48,176.705z"/>
</g>
</svg>